<?xml version="1.0" standalone="no"?>
<!DOCTYPE svg PUBLIC "-//W3C//DTD SVG 20010904//EN"
 "http://www.w3.org/TR/2001/REC-SVG-20010904/DTD/svg10.dtd">
<svg version="1.0" xmlns="http://www.w3.org/2000/svg"
 width="1058.000000pt" height="900.000000pt" viewBox="0 0 1058.000000 900.000000"
 preserveAspectRatio="xMidYMid meet">

<g transform="translate(0.000000,900.000000) scale(0.100000,-0.100000)"
fill="#000000" stroke="none">
<path d="M4755 7829 c-24 -6 -35 -19 -50 -56 -20 -47 -20 -83 -23 -2444 -2
-2119 -4 -2398 -17 -2409 -9 -7 -47 -15 -85 -18 l-70 -5 -43 45 c-23 25 -65
61 -93 81 -28 20 -63 54 -78 76 -18 25 -37 41 -57 45 -18 3 -56 33 -104 81
-41 41 -81 75 -89 75 -7 0 -33 20 -58 44 -25 24 -67 56 -94 72 -27 16 -54 33
-61 40 -6 6 -25 17 -42 24 -17 7 -31 18 -31 24 0 17 -58 68 -101 90 -20 10
-42 29 -49 42 -8 13 -17 24 -22 24 -4 0 -8 6 -8 13 0 12 -96 77 -113 77 -12 0
-43 32 -56 57 -6 13 -28 32 -49 42 -36 19 -70 45 -120 92 -21 19 -32 21 -93
17 -76 -6 -80 -8 -145 -94 -19 -24 -34 -48 -34 -53 0 -5 -17 -24 -38 -43 -22
-18 -61 -67 -88 -108 -27 -41 -56 -82 -65 -90 -8 -8 -21 -27 -26 -41 -11 -25
-8 -29 57 -83 38 -31 75 -69 82 -84 7 -15 32 -37 56 -49 23 -13 62 -40 85 -62
66 -62 134 -111 154 -111 10 0 44 -26 76 -59 32 -32 78 -71 102 -87 25 -15 45
-34 45 -41 0 -7 4 -13 8 -13 5 0 14 -10 21 -23 7 -12 33 -32 60 -44 26 -12 77
-51 113 -86 36 -35 81 -71 101 -81 20 -9 41 -26 47 -36 9 -17 134 -105 196
-138 11 -6 32 -27 45 -46 13 -20 40 -42 59 -50 20 -8 57 -41 85 -74 32 -39 66
-67 96 -80 25 -11 59 -37 74 -57 16 -20 51 -49 77 -65 26 -16 56 -38 67 -47
78 -74 103 -93 155 -118 34 -17 74 -48 95 -72 19 -24 59 -58 87 -75 28 -18 61
-47 72 -65 12 -18 34 -40 49 -49 84 -51 131 -87 140 -107 6 -12 28 -31 49 -42
22 -11 57 -36 79 -57 33 -30 52 -39 115 -50 68 -13 77 -12 93 2 16 15 17 171
19 2442 l3 2426 23 25 c13 14 37 31 54 38 29 12 31 11 83 -44 29 -32 57 -57
62 -57 6 0 20 -9 32 -19 13 -11 26 -21 29 -23 4 -2 19 -19 34 -39 15 -20 46
-46 68 -57 42 -20 107 -75 132 -110 7 -11 31 -29 53 -41 22 -12 70 -47 106
-79 37 -32 93 -71 124 -86 32 -17 60 -39 65 -51 9 -25 56 -65 75 -65 16 0 95
-74 109 -102 6 -12 38 -36 71 -53 33 -18 69 -46 80 -63 11 -17 39 -41 63 -53
23 -12 42 -26 42 -30 0 -4 18 -18 40 -30 22 -12 42 -30 45 -40 6 -18 42 -38
112 -62 l42 -14 36 38 c19 21 35 43 35 49 0 6 26 37 58 68 31 31 64 71 72 87
8 17 38 51 67 78 41 38 53 56 58 89 4 23 12 50 18 59 15 24 1 64 -27 77 -42
19 -126 93 -126 110 0 16 -52 62 -70 62 -18 0 -77 34 -105 61 -79 73 -123 110
-140 115 -11 4 -42 30 -70 58 -27 29 -66 59 -85 68 -19 9 -62 41 -95 71 -33
30 -75 62 -92 71 -18 9 -33 23 -33 31 0 22 -65 80 -130 114 -33 18 -79 49
-102 71 -49 45 -159 130 -167 130 -3 0 -16 16 -29 34 -14 20 -41 41 -64 50
-22 9 -63 38 -91 65 -29 26 -65 56 -82 65 -16 10 -48 42 -70 71 -22 30 -53 59
-68 64 -16 6 -41 23 -55 38 -50 52 -127 110 -174 133 -46 21 -91 56 -99 76 -2
6 -38 35 -79 65 -41 31 -81 68 -89 83 -8 15 -34 35 -58 46 -48 21 -123 86
-123 107 0 7 -21 23 -47 35 -27 12 -67 42 -91 65 -23 24 -46 43 -50 42 -4 0
-21 -5 -37 -10z"/>
</g>
</svg>
